<?xml version="1.0" ?><!DOCTYPE svg  PUBLIC '-//W3C//DTD SVG 1.1//EN'  'http://www.w3.org/Graphics/SVG/1.1/DTD/svg11.dtd'><svg enable-background="new 0 0 512 512" height="512px" id="Layer_1" version="1.1" viewBox="0 0 512 512" width="512px" xml:space="preserve" xmlns="http://www.w3.org/2000/svg" xmlns:xlink="http://www.w3.org/1999/xlink"><g><g><path d="M305.351,288.072h-13.644v9.853h13.644c3.952,0,7.208-2.195,7.208-4.926    C312.559,290.269,309.303,288.072,305.351,288.072z" fill="#ffffff"/><polygon fill="#ffffff" points="225.192,320.628 225.192,284.463 208.828,302.508   "/><path d="M254.396,199.905h-13.643v9.856h13.643c3.962,0,7.219-2.201,7.219-4.926    C261.615,202.105,258.358,199.905,254.396,199.905z" fill="#ffffff"/><path d="M252.02,287.977h-13.634v9.853h13.634c3.961,0,7.217-2.196,7.217-4.926    C259.237,290.184,255.981,287.977,252.02,287.977z" fill="#ffffff"/><polygon fill="#ffffff" points="65.755,215.834 78.6,215.834 72.18,200.348   "/><polygon fill="#ffffff" points="149.961,288.244 149.961,296.245 177.056,296.245 177.056,308.046 149.961,308.046     149.961,316.849 177.762,316.849 190.785,302.508 177.762,288.244   "/><path d="M481.641,97.198H29.909c-16.638,0-30.126,13.488-30.126,30.126v257.901    c0,16.638,13.488,30.126,30.126,30.126h451.732c16.638,0,30.126-13.488,30.126-30.126V127.324    C511.767,110.686,498.279,97.198,481.641,97.198z M320.387,187.588l16.278,0.444v11.7l-13.367,0.172c0,0-8.715,0-9.776,11.355    c-0.124,1.303-0.18,2.502-0.171,3.614c0.047,17.577,15.257,12.12,15.754,11.957l16.364-38.799h18.472l19.792,47.159v-47.159    h18.655l20.679,34.227v-34.227h13.29v51.994h-18.215l-20.939-34.752v34.752h-11.351h-2.12H371.34l-4.668-10.908h-24.107    l-4.583,10.908h-12.144h-2.196h-6.339c0,0-17.768-2.549-17.768-24.545C299.536,186.619,319.69,187.765,320.387,187.588z     M281.769,188.033h13.28v52.17h-13.28V188.033z M179.519,188.033h41.186v12.139h-27.896v8.005h27.19v11.791h-27.19v8.802h27.896    v11.256h-41.186V188.033z M114.852,204.306v35.72h-11.524h-1.762H88.807l-4.573-10.908H60.127l-4.664,10.908h-14.43l21.906-51.994    h18.569l20.058,47.774v-47.774h20.852l14.521,32.289l14.436-32.289h20.851v51.994h-13.385v-35.893l-16.536,35.893h-10.821    L114.852,204.306z M251.313,311.387h-12.927v16.718h-13.022h-11.533l-13.977-15.401l-14.091,15.401h-8.001h-41.091v-52.086h41.091    h6.951l15.142,16.542l15.219-16.456h10.119v-0.086h32.022c0,0,16.718-1.851,16.718,15.301    C273.932,306.633,268.384,311.387,251.313,311.387z M275.334,227.185v12.841h-12.927v-10.115c0,0-0.535-7.92-8.802-7.92h-12.851    v18.035H227.56v-51.994h32.03c0,0,16.717-2.024,16.717,15.218c0,8.975-7.39,12.139-7.39,12.139S275.334,218.387,275.334,227.185z     M326.202,315.339v12.851h-12.852v-10.12c0,0-0.534-7.914-8.802-7.914h-12.842v18.034h-13.204v-51.998h32.03    c0,0,16.718-2.023,16.718,15.223c0,8.974-7.389,12.145-7.389,12.145S326.202,306.547,326.202,315.339z M373.881,288.244h-27.889    v8.001h27.19v11.801h-27.19v8.803h27.889v11.256h-41.168v-51.913h41.168V288.244z M404.956,328.084    c-0.993,0-1.596-0.066-1.596-0.066h-23.496v-11.973h20.595c0,0,7.39,0.88,7.39-4.123c0-4.679-11.17-4.316-11.17-4.316    s-18.216,1.586-18.216-15.485c0-16.984,16.449-16.016,16.449-16.016h25.347v12.14h-20.41c0,0-7.046-1.412-7.046,3.705    c0,4.296,9.585,3.685,9.585,3.685s20.153-1.489,20.153,14.167C422.541,326.595,409.557,328.084,404.956,328.084z M451.499,328.084    c-0.994,0-1.596-0.066-1.596-0.066h-23.495v-11.973h20.507c0,0,7.477,0.88,7.477-4.123c0-4.679-11.169-4.316-11.169-4.316    s-18.218,1.586-18.218-15.485c0-16.984,16.449-16.016,16.449-16.016h25.262v12.14h-20.334c0,0-7.038-1.412-7.038,3.705    c0,4.296,9.596,3.685,9.596,3.685s20.143-1.489,20.143,14.167C469.083,326.595,456.1,328.084,451.499,328.084z" fill="#ffffff"/><polygon fill="#ffffff" points="354.709,200.348 348.198,215.834 361.038,215.834   "/></g></g></svg>